# Blender 4.1.1
# www.blender.org
mtllib bank.mtl
o Cube
v -1.000000 -1.000000 1.000000
v -1.000000 1.000000 1.000000
v -1.000000 -1.000000 -1.000000
v -1.000000 1.000000 -1.000000
v 1.000000 -1.000000 1.000000
v 1.000000 1.000000 1.000000
v 1.000000 -1.000000 -1.000000
v 1.000000 1.000000 -1.000000
v -1.000000 3.735177 1.000000
v -1.000000 3.735177 -1.000000
v 1.000000 3.735177 -1.000000
v 1.000000 3.735177 1.000000
v -1.000000 4.522707 1.000000
v -1.000000 4.522707 -1.000000
v 1.000000 4.522707 -1.000000
v 1.000000 4.522707 1.000000
v -1.000000 3.735177 -9.777605
v 1.000000 3.735177 -9.777605
v -1.000000 4.522707 -9.777605
v 1.000000 4.522707 -9.777605
v -1.000000 3.735177 -11.920967
v 1.000000 3.735177 -11.920967
v -1.000000 4.522707 -11.920967
v 1.000000 4.522707 -11.920967
v -1.000000 0.018121 -9.777605
v 1.000000 0.018121 -9.777605
v -1.000000 0.018121 -11.920967
v 1.000000 0.018121 -11.920967
v -1.000000 -0.781059 -9.777605
v 1.000000 -0.781059 -9.777605
v -1.000000 -0.781059 -11.920967
v 1.000000 -0.781059 -11.920967
v -1.836777 3.735177 1.000000
v -1.836777 3.735177 -1.000000
v -1.836777 4.522707 1.000000
v -1.836777 4.522707 -1.000000
v -1.836777 3.735177 -9.777605
v -1.836777 4.522707 -9.777605
v -1.836777 3.735177 -11.920967
v -1.836777 4.522707 -11.920967
v -2.375906 7.796012 1.000000
v -2.375906 7.796012 -1.000000
v -3.130251 7.433851 1.000000
v -2.375906 7.796012 -9.777605
v -2.375906 7.796012 -11.920967
v -3.130251 7.433851 -1.000000
v -3.130251 7.433851 -9.777605
v -3.130251 7.433851 -11.920967
vn -1.0000 -0.0000 -0.0000
vn -0.0000 -0.0000 -1.0000
vn 1.0000 -0.0000 -0.0000
vn -0.0000 -0.0000 1.0000
vn -0.0000 -1.0000 -0.0000
vn -0.0000 1.0000 -0.0000
vn -0.9139 -0.4060 -0.0000
vn -0.4328 0.9015 -0.0000
vn 0.9219 0.3875 -0.0000
vt 0.375000 0.000000
vt 0.625000 0.000000
vt 0.625000 0.250000
vt 0.375000 0.250000
vt 0.625000 0.500000
vt 0.375000 0.500000
vt 0.625000 0.750000
vt 0.375000 0.750000
vt 0.625000 1.000000
vt 0.375000 1.000000
vt 0.125000 0.500000
vt 0.125000 0.750000
vt 0.875000 0.500000
vt 0.875000 0.750000
s 0
f 1/1/1 2/2/1 4/3/1 3/4/1
f 3/4/2 4/3/2 8/5/2 7/6/2
f 7/6/3 8/5/3 6/7/3 5/8/3
f 5/8/4 6/7/4 2/9/4 1/10/4
f 3/11/5 7/6/5 5/8/5 1/12/5
f 6/7/3 8/5/3 11/5/3 12/7/3
f 9/9/4 12/7/4 16/7/4 13/9/4
f 4/3/1 2/2/1 9/2/1 10/3/1
f 2/9/4 6/7/4 12/7/4 9/9/4
f 8/5/2 4/3/2 10/3/2 11/5/2
f 15/5/6 14/13/6 13/14/6 16/7/6
f 14/13/6 15/5/6 20/5/6 19/13/6
f 12/7/3 11/5/3 15/5/3 16/7/3
f 10/3/5 9/2/5 33/2/5 34/3/5
f 17/3/5 10/3/5 34/3/5 37/3/5
f 9/9/4 13/9/4 35/9/4 33/9/4
f 11/5/5 10/3/5 17/3/5 18/5/5
f 15/5/3 11/5/3 18/5/3 20/5/3
f 22/5/2 21/3/2 23/3/2 24/5/2
f 17/3/1 21/3/1 27/3/1 25/3/1
f 20/5/3 18/5/3 22/5/3 24/5/3
f 19/13/6 20/5/6 24/5/6 23/13/6
f 25/3/1 27/3/1 31/3/1 29/3/1
f 18/5/4 17/3/4 25/3/4 26/5/4
f 22/5/3 18/5/3 26/5/3 28/5/3
f 21/3/2 22/5/2 28/5/2 27/3/2
f 30/5/5 29/3/5 31/3/5 32/5/5
f 26/5/4 25/3/4 29/3/4 30/5/4
f 28/5/3 26/5/3 30/5/3 32/5/3
f 27/3/2 28/5/2 32/5/2 31/3/2
f 34/3/1 33/2/1 35/2/1 36/3/1
f 37/3/1 38/3/1 40/3/1 39/3/1
f 34/3/1 36/3/1 38/3/1 37/3/1
f 21/3/5 17/3/5 37/3/5 39/3/5
f 36/3/7 35/2/7 43/2/7 46/3/7
f 35/9/4 13/9/4 41/9/4 43/9/4
f 38/3/7 36/3/7 46/3/7 47/3/7
f 23/3/2 21/3/2 39/3/2 40/3/2
f 42/13/8 44/13/8 47/13/8 46/13/8
f 41/14/8 42/13/8 46/13/8 43/14/8
f 44/13/8 45/13/8 48/13/8 47/13/8
f 40/3/7 38/3/7 47/3/7 48/3/7
f 14/13/9 19/13/9 44/13/9 42/13/9
f 23/3/2 40/3/2 48/3/2 45/3/2
f 13/14/9 14/13/9 42/13/9 41/14/9
f 19/13/9 23/13/9 45/13/9 44/13/9
