# Blender 4.1.1
# www.blender.org
mtllib g.sign_pole.mtl
o Cylinder
v 0.000000 -0.500984 -0.623686
v 0.000000 0.746387 -0.623686
v 0.441014 -0.500984 -0.441012
v 0.441014 0.746387 -0.441012
v 0.623688 -0.500984 0.000000
v 0.623688 0.746387 0.000000
v 0.441014 -0.500984 0.441012
v 0.441014 0.746387 0.441012
v 0.000000 -0.500984 0.623686
v 0.000000 0.746387 0.623686
v -0.441010 -0.500984 0.441012
v -0.441010 0.746387 0.441012
v -0.623684 -0.500984 -0.000000
v -0.623684 0.746387 -0.000000
v -0.441010 -0.500984 -0.441012
v -0.441010 0.746387 -0.441012
v 0.286589 0.746387 -0.286587
v 0.000000 0.746387 -0.405295
v 0.405297 0.746387 0.000000
v 0.286589 0.746387 0.286587
v 0.000000 0.746387 0.405295
v -0.286585 0.746387 0.286587
v -0.405293 0.746387 -0.000000
v -0.286585 0.746387 -0.286587
v 0.286589 6.836825 -0.286587
v 0.000000 6.836825 -0.405295
v 0.405297 6.836825 0.000000
v 0.286589 6.836825 0.286587
v 0.000000 6.836825 0.405295
v -0.286585 6.836825 0.286587
v -0.405293 6.836825 -0.000000
v -0.286585 6.836825 -0.286587
v 0.219813 6.836825 -0.219811
v 0.000000 6.836825 -0.310860
v 0.310862 6.836825 0.000000
v 0.219813 6.836825 0.219811
v 0.000000 6.836825 0.310860
v -0.219809 6.836825 0.219811
v -0.310858 6.836825 -0.000000
v -0.219809 6.836825 -0.219811
v 0.219810 12.497697 -0.219811
v 0.000000 12.497697 -0.310860
v 0.310859 12.497697 0.000000
v 0.219810 12.497697 0.219811
v 0.000000 12.497697 0.310860
v -0.219812 12.497697 0.219811
v -0.310861 12.497697 -0.000000
v -0.219812 12.497697 -0.219811
v 0.156416 12.497697 -0.156417
v 0.000000 12.497697 -0.221207
v 0.221206 12.497697 0.000000
v 0.156416 12.497697 0.156417
v 0.000000 12.497697 0.221207
v -0.156418 12.497697 0.156417
v -0.221207 12.497697 -0.000000
v -0.156418 12.497697 -0.156417
v 0.156416 13.817653 -0.156417
v 0.000000 13.817653 -0.221207
v 0.221206 13.817653 0.000000
v 0.156416 13.817653 0.156417
v 0.000000 13.817653 0.221207
v -0.156418 13.817653 0.156417
v -0.221207 13.817653 -0.000000
v -0.156418 13.817653 -0.156417
v 0.000000 12.380098 -0.310860
v -0.219812 12.380098 -0.219811
v -0.310861 12.380098 -0.000000
v -0.219812 12.380098 0.219811
v 0.000000 12.380098 0.310860
v 0.219810 12.380098 0.219811
v 0.310859 12.380098 0.000000
v 0.219810 12.380098 -0.219811
v 0.263772 12.497697 -0.263773
v 0.000000 12.497697 -0.373032
v 0.373031 12.497697 0.000000
v 0.263773 12.497697 0.263773
v 0.000000 12.497697 0.373032
v -0.263774 12.497697 0.263773
v -0.373033 12.497697 -0.000000
v -0.263774 12.497697 -0.263773
v 0.000000 12.380098 -0.373032
v -0.263774 12.380098 -0.263773
v -0.373033 12.380098 -0.000000
v -0.263774 12.380098 0.263773
v 0.000000 12.380098 0.373032
v 0.263773 12.380098 0.263773
v 0.373031 12.380098 0.000000
v 0.263773 12.380098 -0.263773
v 0.156416 14.140993 -0.620024
v 0.156416 13.988323 -0.620024
v 0.000000 13.988323 -1.045543
v 0.221206 13.988323 0.000000
v 0.486264 13.988323 1.696091
v 0.000000 13.988323 2.121609
v -0.156418 13.988323 1.027293
v -0.221207 13.988323 -0.000000
v -0.156418 13.988323 -1.027293
v 0.000000 14.140993 -1.045543
v 0.221206 14.140993 0.000000
v 0.486264 14.140993 1.696091
v 0.000000 14.140993 2.121609
v -0.156418 14.140993 1.027293
v -0.221207 14.140993 -0.000000
v -0.156418 14.140993 -1.027293
v -0.000144 14.140993 0.000000
v 0.532222 -0.500984 0.220818
v 0.532222 0.746387 0.220818
v -0.532218 -0.500984 0.220818
v -0.532218 0.746387 0.220818
v 0.345859 0.746387 0.143496
v -0.345855 0.746387 0.143496
v 0.345859 6.836825 0.143496
v -0.345855 6.836825 0.143496
v 0.265273 6.836825 0.110061
v -0.265269 6.836825 0.110061
v 0.265270 12.497697 0.110061
v -0.265272 12.497697 0.110061
v 0.188765 12.497697 0.078319
v -0.188767 12.497697 0.078319
v 0.188765 13.817653 0.078319
v -0.188767 13.817653 0.078319
v -0.265272 12.380098 0.110061
v 0.265270 12.380098 0.110061
v 0.318325 12.497697 0.132073
v -0.318326 12.497697 0.132073
v -0.318326 12.380098 0.132073
v 0.318325 12.380098 0.132073
v 0.518613 13.988323 0.849244
v -0.188767 13.988323 0.514372
v 0.518613 14.140993 0.849244
v -0.188767 14.140993 0.514372
v 0.000000 14.140993 1.062304
v -0.441014 -0.500984 -0.441012
v -0.441014 0.746387 -0.441012
v -0.623688 -0.500984 0.000000
v -0.623688 0.746387 0.000000
v -0.441014 -0.500984 0.441012
v -0.441014 0.746387 0.441012
v 0.441010 -0.500984 0.441012
v 0.441010 0.746387 0.441012
v 0.623684 -0.500984 -0.000000
v 0.623684 0.746387 -0.000000
v 0.441010 -0.500984 -0.441012
v 0.441010 0.746387 -0.441012
v -0.286589 0.746387 -0.286587
v -0.405297 0.746387 0.000000
v -0.286589 0.746387 0.286587
v 0.286585 0.746387 0.286587
v 0.405293 0.746387 -0.000000
v 0.286585 0.746387 -0.286587
v -0.286589 6.836825 -0.286587
v -0.405297 6.836825 0.000000
v -0.286589 6.836825 0.286587
v 0.286585 6.836825 0.286587
v 0.405293 6.836825 -0.000000
v 0.286585 6.836825 -0.286587
v -0.219813 6.836825 -0.219811
v -0.310862 6.836825 0.000000
v -0.219813 6.836825 0.219811
v 0.219809 6.836825 0.219811
v 0.310858 6.836825 -0.000000
v 0.219809 6.836825 -0.219811
v -0.219810 12.497697 -0.219811
v -0.310859 12.497697 0.000000
v -0.219810 12.497697 0.219811
v 0.219812 12.497697 0.219811
v 0.310861 12.497697 -0.000000
v 0.219812 12.497697 -0.219811
v -0.156416 12.497697 -0.156417
v -0.221206 12.497697 0.000000
v -0.156416 12.497697 0.156417
v 0.156418 12.497697 0.156417
v 0.221207 12.497697 -0.000000
v 0.156418 12.497697 -0.156417
v -0.156416 13.817653 -0.156417
v -0.221206 13.817653 0.000000
v -0.156416 13.817653 0.156417
v 0.156418 13.817653 0.156417
v 0.221207 13.817653 -0.000000
v 0.156418 13.817653 -0.156417
v 0.219812 12.380098 -0.219811
v 0.310861 12.380098 -0.000000
v 0.219812 12.380098 0.219811
v -0.219810 12.380098 0.219811
v -0.310859 12.380098 0.000000
v -0.219810 12.380098 -0.219811
v -0.263772 12.497697 -0.263773
v -0.373031 12.497697 0.000000
v -0.263773 12.497697 0.263773
v 0.263774 12.497697 0.263773
v 0.373033 12.497697 -0.000000
v 0.263774 12.497697 -0.263773
v 0.263774 12.380098 -0.263773
v 0.373033 12.380098 -0.000000
v 0.263774 12.380098 0.263773
v -0.263773 12.380098 0.263773
v -0.373031 12.380098 0.000000
v -0.263773 12.380098 -0.263773
v -0.156416 14.140993 -0.620024
v -0.156416 13.988323 -0.620024
v -0.221206 13.988323 0.000000
v -0.486264 13.988323 1.696091
v 0.156418 13.988323 1.027293
v 0.221207 13.988323 -0.000000
v 0.156418 13.988323 -1.027293
v -0.221206 14.140993 0.000000
v -0.486264 14.140993 1.696091
v 0.156418 14.140993 1.027293
v 0.221207 14.140993 -0.000000
v 0.156418 14.140993 -1.027293
v 0.000144 14.140993 0.000000
v -0.532222 -0.500984 0.220818
v -0.532222 0.746387 0.220818
v 0.532218 -0.500984 0.220818
v 0.532218 0.746387 0.220818
v -0.345859 0.746387 0.143496
v 0.345855 0.746387 0.143496
v -0.345859 6.836825 0.143496
v 0.345855 6.836825 0.143496
v -0.265273 6.836825 0.110061
v 0.265269 6.836825 0.110061
v -0.265270 12.497697 0.110061
v 0.265272 12.497697 0.110061
v -0.188765 12.497697 0.078319
v 0.188767 12.497697 0.078319
v -0.188765 13.817653 0.078319
v 0.188767 13.817653 0.078319
v 0.265272 12.380098 0.110061
v -0.265270 12.380098 0.110061
v -0.318325 12.497697 0.132073
v 0.318326 12.497697 0.132073
v 0.318326 12.380098 0.132073
v -0.318325 12.380098 0.132073
v -0.518613 13.988323 0.849244
v 0.188767 13.988323 0.514372
v -0.518613 14.140993 0.849244
v 0.188767 14.140993 0.514372
vn 0.3827 -0.0000 -0.9239
vn 0.7071 -0.0000 -0.7071
vn 1.0000 -0.0000 -0.0000
vn 0.9239 -0.0000 0.3827
vn 0.7071 -0.0000 0.7071
vn 0.3827 -0.0000 0.9239
vn -0.3827 -0.0000 0.9239
vn -0.7071 -0.0000 0.7071
vn -0.9239 -0.0000 0.3827
vn -1.0000 -0.0000 -0.0000
vn -0.3827 -0.0000 -0.9239
vn -0.7071 -0.0000 -0.7071
vn -0.0000 1.0000 -0.0000
vn -0.8280 -0.3316 -0.4521
vn -0.2563 -0.6974 -0.6693
vn -0.0000 -1.0000 -0.0000
vn -0.8404 -0.3534 0.4108
vn -0.5011 -0.6301 0.5932
vn -0.9850 -0.0919 0.1461
vn -0.8509 -0.5102 0.1255
vn -0.9943 -0.1063 0.0008
vn -0.9643 -0.0914 0.2487
vn 0.5835 -0.6949 0.4204
vn 0.2791 -0.7363 0.6164
vn 0.9845 -0.1355 -0.1117
vn 0.9598 -0.2582 0.1101
vn 0.8422 -0.2769 -0.4627
vn 0.4557 -0.6010 -0.6566
vn -0.9800 -0.1808 0.0837
vn -0.9947 -0.1023 0.0007
vn -0.6105 -0.5117 -0.6045
vn -0.1100 -0.6074 -0.7867
vn -0.9899 -0.0000 0.1415
vn -0.9948 -0.0000 0.1023
vn -0.9980 -0.0000 0.0629
vn -0.7257 -0.0000 -0.6881
vn -0.1159 -0.0000 -0.9933
vn 0.7234 -0.5861 0.3650
vn 0.5842 -0.4536 0.6730
vn 0.9674 -0.1300 -0.2172
vn 0.8579 -0.5060 -0.0892
vn 0.8403 -0.4715 -0.2676
vn 0.9113 -0.2037 -0.3579
vn 0.9026 -0.0000 0.4305
vn 0.6585 -0.0000 0.7525
vn 0.9758 -0.0000 -0.2187
vn 0.9889 -0.0000 -0.1488
vn 0.9741 -0.0000 -0.2262
vn 0.9386 -0.0000 -0.3450
vn 0.2563 -0.6974 -0.6693
vn 0.8280 -0.3316 -0.4521
vn 0.8404 -0.3534 0.4108
vn 0.8509 -0.5101 0.1255
vn 0.9850 -0.0919 0.1461
vn 0.5011 -0.6301 0.5932
vn 0.9943 -0.1063 0.0008
vn 0.9643 -0.0914 0.2487
vn -0.2791 -0.7363 0.6164
vn -0.5835 -0.6949 0.4204
vn -0.9598 -0.2582 0.1101
vn -0.9845 -0.1355 -0.1117
vn -0.8422 -0.2769 -0.4627
vn -0.4557 -0.6010 -0.6566
vn 0.9800 -0.1808 0.0837
vn 0.6105 -0.5117 -0.6045
vn 0.9947 -0.1023 0.0007
vn 0.1100 -0.6074 -0.7867
vn 0.9948 -0.0000 0.1023
vn 0.9899 -0.0000 0.1415
vn 0.9980 -0.0000 0.0629
vn 0.7257 -0.0000 -0.6881
vn 0.1159 -0.0000 -0.9933
vn -0.5842 -0.4536 0.6730
vn -0.7234 -0.5861 0.3650
vn -0.8579 -0.5060 -0.0892
vn -0.9674 -0.1300 -0.2172
vn -0.8403 -0.4715 -0.2676
vn -0.9113 -0.2037 -0.3579
vn -0.6585 -0.0000 0.7525
vn -0.9026 -0.0000 0.4305
vn -0.9889 -0.0000 -0.1488
vn -0.9758 -0.0000 -0.2187
vn -0.9741 -0.0000 -0.2262
vn -0.9386 -0.0000 -0.3450
vt 0.851012 0.245151
vt 0.846347 0.418063
vt 0.786215 0.428299
vt 0.768876 0.245151
vt 0.717711 0.461762
vt 0.683683 0.255173
vt 0.963521 0.016231
vt 0.933532 0.190372
vt 0.903129 0.177645
vt 0.929014 0.009708
vt 0.846348 0.173244
vt 0.851012 0.000333
vt 0.786216 0.183481
vt 0.768876 0.000333
vt 0.726280 0.005344
vt 0.751964 0.200212
vt 0.717712 0.216944
vt 0.683683 0.010355
vt 0.297324 0.000637
vt 0.348604 0.001376
vt 0.334027 0.876027
vt 0.292649 0.872334
vt 0.929014 0.254527
vt 0.903128 0.422464
vt 0.998029 0.267574
vt 0.963934 0.447917
vt 0.847385 0.448932
vt 0.797032 0.460548
vt 0.749481 0.489304
vt 0.917356 0.215800
vt 0.895633 0.205691
vt 0.847385 0.204114
vt 0.797033 0.215730
vt 0.773257 0.230108
vt 0.749482 0.244486
vt 0.939078 0.470729
vt 0.895632 0.450509
vt 0.833495 0.650191
vt 0.864342 0.653888
vt 0.864159 0.661485
vt 0.831387 0.657474
vt 0.399919 0.002520
vt 0.376796 0.891459
vt 0.023111 0.000333
vt 0.045861 0.000334
vt 0.048604 0.876149
vt 0.024469 0.884909
vt 0.097213 0.000640
vt 0.092510 0.872336
vt 0.148492 0.001380
vt 0.133888 0.876030
vt 0.174150 0.001953
vt 0.199807 0.002527
vt 0.176657 0.891463
vt 0.155272 0.883746
vt 0.200473 0.000333
vt 0.245973 0.000333
vt 0.248744 0.876149
vt 0.200473 0.893671
vt 0.292430 0.886563
vt 0.252010 0.891113
vt 0.212794 0.907323
vt 0.148548 0.895682
vt 0.130789 0.888928
vt 0.092290 0.886564
vt 0.051871 0.891113
vt 0.032262 0.899217
vt 0.012653 0.907322
vt 0.000333 0.893670
vt 0.366448 0.902432
vt 0.330928 0.888925
vt 0.733809 0.686034
vt 0.758872 0.686034
vt 0.758872 0.881434
vt 0.733809 0.881434
vt 0.895712 0.650318
vt 0.897456 0.658450
vt 0.827407 0.682089
vt 0.786523 0.674197
vt 0.784600 0.662339
vt 0.829143 0.672804
vt 0.910468 0.606215
vt 0.894180 0.598168
vt 0.896288 0.590884
vt 0.915363 0.599192
vt 0.826134 0.566527
vt 0.862760 0.562993
vt 0.862541 0.571793
vt 0.826911 0.574932
vt 0.863330 0.594474
vt 0.831962 0.598047
vt 0.830217 0.589916
vt 0.863513 0.586877
vt 0.920709 0.570209
vt 0.941154 0.574152
vt 0.943080 0.586010
vt 0.920805 0.580781
vt 0.800925 0.634096
vt 0.793243 0.640855
vt 0.865025 0.641110
vt 0.892781 0.637142
vt 0.919597 0.624513
vt 0.931054 0.635740
vt 0.902457 0.617098
vt 0.889865 0.610348
vt 0.862649 0.607252
vt 0.834892 0.611221
vt 0.821486 0.617534
vt 0.808079 0.623847
vt 0.796625 0.612622
vt 0.814294 0.605335
vt 0.812633 0.624513
vt 0.837812 0.638013
vt 0.374164 0.958376
vt 0.359537 0.979496
vt 0.182120 0.940510
vt 0.247601 0.930390
vt 0.783935 0.686034
vt 0.783935 0.881434
vt 0.696215 0.489969
vt 0.708746 0.489969
vt 0.708746 0.685369
vt 0.696215 0.685369
vt 0.733809 0.489969
vt 0.733809 0.685369
vt 0.758872 0.489969
vt 0.758872 0.685369
vt 0.771404 0.489969
vt 0.783935 0.489970
vt 0.783935 0.685369
vt 0.771403 0.685369
vt 0.683683 0.686035
vt 0.708746 0.686035
vt 0.708746 0.881434
vt 0.683683 0.881434
vt 0.471027 0.000333
vt 0.506248 0.000333
vt 0.506249 0.820938
vt 0.471029 0.820938
vt 0.541469 0.000333
vt 0.541469 0.820939
vt 0.559745 0.000333
vt 0.577355 0.000333
vt 0.577354 0.820931
vt 0.559744 0.820931
vt 0.612576 0.000333
vt 0.612576 0.820931
vt 0.647797 0.000333
vt 0.647797 0.820931
vt 0.665407 0.000333
vt 0.683018 0.000333
vt 0.683017 0.820931
vt 0.665407 0.820931
vt 0.400585 0.000334
vt 0.435806 0.000333
vt 0.435810 0.820938
vt 0.400590 0.820938
vt 0.865129 0.676569
vt 0.805756 0.578167
vt 0.809552 0.596905
vt 0.898530 0.575552
vt 0.934439 0.607500
vt 0.943079 0.666967
vt 0.900762 0.673435
vt 0.938793 0.644469
vt 0.940398 0.676848
vt 0.901538 0.681842
vt 0.788887 0.603895
vt 0.900265 0.566266
vt 0.806707 0.569024
vt 0.864908 0.685369
vt 0.387041 0.957804
vt 0.323183 0.930829
vt 0.715210 0.951105
vt 0.689654 0.953668
vt 0.687071 0.927906
vt 0.836274 0.905139
vt 0.732674 0.969865
vt 0.903257 0.905685
vt 0.178765 0.917952
vt 0.245753 0.907988
vt 0.322298 0.907988
vt 0.683683 0.905528
vt 0.834558 0.882687
vt 0.903257 0.882099
vt 0.571167 0.821604
vt 0.588631 0.840364
vt 0.467568 0.886330
vt 0.400585 0.885784
vt 0.601409 0.839082
vt 0.614187 0.837801
vt 0.616771 0.863563
vt 0.542169 0.874946
vt 0.400585 0.932300
vt 0.426340 0.931156
vt 0.552903 0.959142
vt 0.401738 0.958264
vt 0.440967 0.910036
vt 0.618384 0.949021
vt 0.923630 0.494765
vt 0.892134 0.522726
vt 0.784600 0.522716
vt 0.847592 0.499560
vt 0.936675 0.695625
vt 0.999667 0.718781
vt 0.784600 0.718802
vt 0.784600 0.686034
vt 0.923630 0.550666
vt 0.847592 0.545871
vt 0.936676 0.741936
vt 0.784600 0.751527
vt 0.469283 0.908782
vt 0.400585 0.909370
vt 0.620159 0.885940
vt 0.544721 0.897361
vt 0.554752 0.981543
vt 0.401661 0.981543
vt 0.621740 0.971580
vt 0.999667 0.522737
vt 0.999667 0.555462
vt 0.999667 0.489969
vt 0.398766 0.931269
vt 0.398843 0.907988
vt 0.399919 0.957232
vt 0.787280 0.571521
vt 0.784600 0.581401
vt 0.542135 0.000333
vt 0.542135 0.820931
vt 0.683683 0.489969
vt 0.683683 0.685369
vt 0.915049 0.623847
vt 0.926757 0.614262
vt 0.166308 0.902436
vt 0.000362 0.000333
vt 0.939079 0.225910
vt 0.963936 0.203098
vt 0.998029 0.022755
s 1
f 1/1/1 2/2/1 4/3/2 3/4/2
f 3/4/2 4/3/2 6/5/3 5/6/3
f 106/7/4 107/8/4 8/9/5 7/10/5
f 7/10/5 8/9/5 10/11/6 9/12/6
f 9/12/7 10/11/7 12/13/8 11/14/8
f 108/15/9 109/16/9 14/17/10 13/18/10
f 18/19/11 24/20/12 32/21/12 26/22/11
f 15/23/12 16/24/12 2/2/11 1/1/11
f 13/25/10 14/26/10 16/24/12 15/23/12
s 0
f 18/27/13 17/28/13 4/3/13 2/2/13
f 17/28/13 19/29/13 6/5/13 4/3/13
f 110/30/13 20/31/13 8/9/13 107/8/13
f 20/31/13 21/32/13 10/11/13 8/9/13
f 21/32/13 22/33/13 12/13/13 10/11/13
f 111/34/13 23/35/13 14/17/13 109/16/13
f 23/36/13 24/37/13 16/24/13 14/26/13
f 24/37/13 18/27/13 2/2/13 16/24/13
f 48/38/13 42/39/13 74/40/13 80/41/13
s 1
f 24/20/12 23/42/10 31/43/10 32/21/12
f 111/44/9 22/45/8 30/46/8 113/47/9
f 22/45/8 21/48/7 29/49/7 30/46/8
f 21/48/6 20/50/5 28/51/5 29/49/6
f 110/52/4 19/53/3 27/54/3 112/55/4
f 19/56/3 17/57/2 25/58/2 27/59/3
f 17/57/2 18/19/1 26/22/1 25/58/2
s 0
f 34/60/13 33/61/13 25/58/13 26/22/13
f 33/61/13 35/62/13 27/59/13 25/58/13
f 114/63/13 36/64/13 28/51/13 112/55/13
f 36/64/13 37/65/13 29/49/13 28/51/13
f 37/65/13 38/66/13 30/46/13 29/49/13
f 115/67/13 39/68/13 31/69/13 113/47/13
f 39/70/13 40/71/13 32/21/13 31/43/13
f 40/71/13 34/60/13 26/22/13 32/21/13
s 1
f 50/72/11 56/73/12 64/74/14 58/75/15
s 0
f 42/39/13 41/76/13 73/77/13 74/40/13
f 66/78/16 67/79/16 83/80/16 82/81/16
f 116/82/13 44/83/13 76/84/13 124/85/13
f 68/86/16 69/87/16 85/88/16 84/89/16
f 45/90/13 46/91/13 78/92/13 77/93/13
f 123/94/16 71/95/16 87/96/16 127/97/16
f 47/98/13 48/38/13 80/41/13 79/99/13
f 50/100/13 49/101/13 41/76/13 42/39/13
f 49/101/13 51/102/13 43/103/13 41/76/13
f 118/104/13 52/105/13 44/83/13 116/82/13
f 52/105/13 53/106/13 45/90/13 44/83/13
f 53/106/13 54/107/13 46/91/13 45/90/13
f 119/108/13 55/109/13 47/110/13 117/111/13
f 55/112/13 56/113/13 48/38/13 47/98/13
f 56/113/13 50/100/13 42/39/13 48/38/13
s 1
f 62/114/17 61/115/18 94/116/19 95/117/20
f 56/73/12 55/118/10 63/119/21 64/74/14
f 119/120/9 54/121/8 62/122/17 121/123/22
f 54/121/8 53/124/7 61/125/18 62/122/17
f 53/124/6 52/126/5 60/127/23 61/125/24
f 118/128/4 51/129/3 59/130/25 120/131/26
f 51/132/3 49/133/2 57/134/27 59/135/25
f 49/133/2 50/72/1 58/75/28 57/134/27
f 34/136/11 40/137/12 66/138/12 65/139/11
f 40/137/12 39/140/10 67/141/10 66/138/12
f 115/142/9 38/143/8 68/144/8 122/145/9
f 38/143/8 37/146/7 69/147/7 68/144/8
f 37/146/6 36/148/5 70/149/5 69/147/6
f 114/150/4 35/151/3 71/152/3 123/153/4
f 35/154/3 33/155/2 72/156/2 71/157/3
f 33/155/2 34/136/1 65/139/1 72/156/2
f 81/158/11 82/81/12 80/41/12 74/40/11
f 82/81/12 83/80/10 79/99/10 80/41/12
f 126/159/9 84/89/8 78/92/8 125/160/9
f 84/89/8 85/88/7 77/93/7 78/92/8
f 85/88/6 86/161/5 76/84/5 77/93/6
f 127/97/4 87/96/3 75/162/3 124/85/4
f 87/163/3 88/164/2 73/77/2 75/165/3
f 88/164/2 81/158/1 74/40/1 73/77/2
s 0
f 71/166/16 72/167/16 88/164/16 87/163/16
f 117/111/13 47/110/13 79/168/13 125/160/13
f 69/87/16 70/169/16 86/161/16 85/88/16
f 44/83/13 45/90/13 77/93/13 76/84/13
f 122/170/16 68/86/16 84/89/16 126/159/16
f 41/76/13 43/103/13 75/165/13 73/77/13
f 65/171/16 66/78/16 82/81/16 81/158/16
f 72/167/16 65/171/16 81/158/16 88/164/16
s 1
f 121/172/22 62/114/17 95/117/20 129/173/29
f 64/174/14 63/175/21 96/176/30 97/177/31
f 58/178/15 64/174/14 97/177/31 91/179/32
f 95/117/20 94/116/19 101/180/33 102/181/34
f 129/173/29 95/117/20 102/181/34 131/182/35
f 97/177/31 96/176/30 103/183/10 104/184/36
f 91/179/32 97/177/31 104/184/36 98/185/37
f 61/186/24 60/187/23 93/188/38 94/189/39
f 120/190/26 59/191/25 92/192/40 128/193/41
f 59/194/25 57/195/27 90/196/42 92/197/40
f 57/195/27 58/198/28 91/199/43 90/196/42
s 0
f 130/200/13 132/201/13 101/202/13 100/203/13
f 89/204/13 98/205/13 105/206/13 99/207/13
f 132/201/13 131/208/13 102/209/13 101/202/13
f 98/205/13 104/210/13 103/211/13 105/206/13
s 1
f 94/189/39 93/188/38 100/212/44 101/213/45
f 128/193/41 92/192/40 99/214/46 130/215/47
f 92/197/40 90/196/42 89/216/48 99/217/46
f 90/196/42 91/199/43 98/218/49 89/216/48
f 93/188/38 128/193/41 130/215/47 100/212/44
s 0
f 105/219/13 103/220/13 131/208/13 132/201/13
f 99/221/13 105/219/13 132/201/13 130/200/13
s 1
f 60/187/23 120/190/26 128/193/41 93/188/38
f 96/222/30 129/173/29 131/182/35 103/223/10
f 63/224/21 121/172/22 129/173/29 96/222/30
s 0
f 67/225/16 122/170/16 126/159/16 83/226/16
f 46/91/13 117/111/13 125/160/13 78/92/13
s 1
f 86/161/5 127/97/4 124/85/4 76/84/5
f 83/226/10 126/159/9 125/160/9 79/168/10
f 36/148/5 114/150/4 123/153/4 70/149/5
f 39/227/10 115/142/9 122/145/9 67/228/10
f 52/126/5 118/128/4 120/131/26 60/127/23
f 55/229/10 119/120/9 121/123/22 63/230/21
s 0
f 54/107/13 119/108/13 117/111/13 46/91/13
f 51/231/13 118/104/13 116/82/13 43/232/13
f 70/169/16 123/94/16 127/97/16 86/161/16
f 43/232/13 116/82/13 124/85/13 75/162/13
f 38/66/13 115/67/13 113/47/13 30/46/13
f 35/233/13 114/63/13 112/55/13 27/54/13
s 1
f 20/50/5 110/52/4 112/55/4 28/51/5
f 23/234/10 111/44/9 113/47/9 31/69/10
s 0
f 22/33/13 111/34/13 109/16/13 12/13/13
f 19/235/13 110/30/13 107/8/13 6/236/13
s 1
f 11/14/8 12/13/8 109/16/9 108/15/9
f 5/237/3 6/236/3 107/8/4 106/7/4
f 1/1/11 133/4/12 134/3/12 2/2/11
f 133/4/12 135/6/10 136/5/10 134/3/12
f 212/7/9 137/10/8 138/9/8 213/8/9
f 137/10/8 9/12/7 10/11/7 138/9/8
f 9/12/6 139/14/5 140/13/5 10/11/6
f 214/15/4 141/18/3 142/17/3 215/16/4
f 18/19/1 26/22/1 156/21/2 150/20/2
f 143/23/2 1/1/1 2/2/1 144/24/2
f 141/25/3 143/23/2 144/24/2 142/26/3
s 0
f 18/27/13 2/2/13 134/3/13 145/28/13
f 145/28/13 134/3/13 136/5/13 146/29/13
f 216/30/13 213/8/13 138/9/13 147/31/13
f 147/31/13 138/9/13 10/11/13 21/32/13
f 21/32/13 10/11/13 140/13/13 148/33/13
f 217/34/13 215/16/13 142/17/13 149/35/13
f 149/36/13 142/26/13 144/24/13 150/37/13
f 150/37/13 144/24/13 2/2/13 18/27/13
f 168/38/13 192/41/13 74/40/13 42/39/13
s 1
f 150/20/2 156/21/2 155/43/3 149/42/3
f 217/44/4 219/47/4 154/46/5 148/45/5
f 148/45/5 154/46/5 29/49/6 21/48/6
f 21/48/7 29/49/7 153/51/8 147/50/8
f 216/52/9 218/55/9 152/54/10 146/53/10
f 146/56/10 152/59/10 151/58/12 145/57/12
f 145/57/12 151/58/12 26/22/11 18/19/11
s 0
f 34/60/13 26/22/13 151/58/13 157/61/13
f 157/61/13 151/58/13 152/59/13 158/62/13
f 220/63/13 218/55/13 153/51/13 159/64/13
f 159/64/13 153/51/13 29/49/13 37/65/13
f 37/65/13 29/49/13 154/46/13 160/66/13
f 221/67/13 219/47/13 155/69/13 161/68/13
f 161/70/13 155/43/13 156/21/13 162/71/13
f 162/71/13 156/21/13 26/22/13 34/60/13
s 1
f 50/72/1 58/75/50 180/74/51 174/73/2
s 0
f 42/39/13 74/40/13 187/77/13 163/76/13
f 181/78/16 193/81/16 194/80/16 182/79/16
f 222/82/13 230/85/13 189/84/13 165/83/13
f 183/86/16 195/89/16 85/88/16 69/87/16
f 45/90/13 77/93/13 190/92/13 166/91/13
f 229/94/16 233/97/16 197/96/16 185/95/16
f 167/98/13 191/99/13 192/41/13 168/38/13
f 50/100/13 42/39/13 163/76/13 169/101/13
f 169/101/13 163/76/13 164/103/13 170/102/13
f 224/104/13 222/82/13 165/83/13 171/105/13
f 171/105/13 165/83/13 45/90/13 53/106/13
f 53/106/13 45/90/13 166/91/13 172/107/13
f 225/108/13 223/111/13 167/110/13 173/109/13
f 173/112/13 167/98/13 168/38/13 174/113/13
f 174/113/13 168/38/13 42/39/13 50/100/13
s 1
f 178/114/52 203/117/53 94/116/54 61/115/55
f 174/73/2 180/74/51 179/119/56 173/118/3
f 225/120/4 227/123/57 178/122/52 172/121/5
f 172/121/5 178/122/52 61/125/55 53/124/6
f 53/124/7 61/125/58 177/127/59 171/126/8
f 224/128/9 226/131/60 176/130/61 170/129/10
f 170/132/10 176/135/61 175/134/62 169/133/12
f 169/133/12 175/134/62 58/75/63 50/72/11
f 34/136/1 65/139/1 181/138/2 162/137/2
f 162/137/2 181/138/2 182/141/3 161/140/3
f 221/142/4 228/145/4 183/144/5 160/143/5
f 160/143/5 183/144/5 69/147/6 37/146/6
f 37/146/7 69/147/7 184/149/8 159/148/8
f 220/150/9 229/153/9 185/152/10 158/151/10
f 158/154/10 185/157/10 186/156/12 157/155/12
f 157/155/12 186/156/12 65/139/11 34/136/11
f 81/158/1 74/40/1 192/41/2 193/81/2
f 193/81/2 192/41/2 191/99/3 194/80/3
f 232/159/4 231/160/4 190/92/5 195/89/5
f 195/89/5 190/92/5 77/93/6 85/88/6
f 85/88/7 77/93/7 189/84/8 196/161/8
f 233/97/9 230/85/9 188/162/10 197/96/10
f 197/163/10 188/165/10 187/77/12 198/164/12
f 198/164/12 187/77/12 74/40/11 81/158/11
s 0
f 185/166/16 197/163/16 198/164/16 186/167/16
f 223/111/13 231/160/13 191/168/13 167/110/13
f 69/87/16 85/88/16 196/161/16 184/169/16
f 165/83/13 189/84/13 77/93/13 45/90/13
f 228/170/16 232/159/16 195/89/16 183/86/16
f 163/76/13 187/77/13 188/165/13 164/103/13
f 65/171/16 81/158/16 193/81/16 181/78/16
f 186/167/16 198/164/16 81/158/16 65/171/16
s 1
f 227/172/57 235/173/64 203/117/53 178/114/52
f 180/174/51 205/177/65 204/176/66 179/175/56
f 58/178/50 91/179/67 205/177/65 180/174/51
f 203/117/53 208/181/68 101/180/69 94/116/54
f 235/173/64 237/182/70 208/181/68 203/117/53
f 205/177/65 210/184/71 209/183/3 204/176/66
f 91/179/67 98/185/72 210/184/71 205/177/65
f 61/186/58 94/189/73 202/188/74 177/187/59
f 226/190/60 234/193/75 201/192/76 176/191/61
f 176/194/61 201/197/76 200/196/77 175/195/62
f 175/195/62 200/196/77 91/199/78 58/198/63
s 0
f 236/200/13 207/203/13 101/202/13 132/201/13
f 199/204/13 206/207/13 211/206/13 98/205/13
f 132/201/13 101/202/13 208/209/13 237/208/13
f 98/205/13 211/206/13 209/211/13 210/210/13
s 1
f 94/189/73 101/213/79 207/212/80 202/188/74
f 234/193/75 236/215/81 206/214/82 201/192/76
f 201/197/76 206/217/82 199/216/83 200/196/77
f 200/196/77 199/216/83 98/218/84 91/199/78
f 202/188/74 207/212/80 236/215/81 234/193/75
s 0
f 211/219/13 132/201/13 237/208/13 209/220/13
f 206/221/13 236/200/13 132/201/13 211/219/13
s 1
f 177/187/59 202/188/74 234/193/75 226/190/60
f 204/222/66 209/223/3 237/182/70 235/173/64
f 179/224/56 204/222/66 235/173/64 227/172/57
s 0
f 182/225/16 194/226/16 232/159/16 228/170/16
f 166/91/13 190/92/13 231/160/13 223/111/13
s 1
f 196/161/8 189/84/8 230/85/9 233/97/9
f 194/226/3 191/168/3 231/160/4 232/159/4
f 159/148/8 184/149/8 229/153/9 220/150/9
f 161/227/3 182/228/3 228/145/4 221/142/4
f 171/126/8 177/127/59 226/131/60 224/128/9
f 173/229/3 179/230/56 227/123/57 225/120/4
s 0
f 172/107/13 166/91/13 223/111/13 225/108/13
f 170/231/13 164/232/13 222/82/13 224/104/13
f 184/169/16 196/161/16 233/97/16 229/94/16
f 164/232/13 188/162/13 230/85/13 222/82/13
f 160/66/13 154/46/13 219/47/13 221/67/13
f 158/233/13 152/54/13 218/55/13 220/63/13
s 1
f 147/50/8 153/51/8 218/55/9 216/52/9
f 149/234/3 155/69/3 219/47/4 217/44/4
s 0
f 148/33/13 140/13/13 215/16/13 217/34/13
f 146/235/13 136/236/13 213/8/13 216/30/13
s 1
f 139/14/5 214/15/4 215/16/4 140/13/5
f 135/237/10 212/7/9 213/8/9 136/236/10
