# Blender 4.1.1
# www.blender.org
mtllib interior.mtl
o Interior
v 6.000000 -0.300000 -9.000000
v 6.000000 -0.300000 9.000000
v -6.000000 -0.300000 -9.000000
v -6.000000 -0.300000 9.000000
v -6.000000 0.300000 -9.000000
v -6.000000 0.300000 9.000000
v 6.000000 0.300000 -9.000000
v 6.000000 0.300000 9.000000
v -6.000000 0.300000 0.000000
v 6.000000 -0.300000 0.000000
v -6.000000 -0.300000 0.000000
v 6.000000 0.300000 0.000000
v -5.064264 0.300000 -9.000000
v -5.064264 -0.300000 9.000000
v -5.064264 0.300000 9.000000
v -5.064264 -0.300000 -9.000000
v -5.064264 -0.300000 0.000000
v 4.997249 0.300000 9.000000
v 4.997249 -0.300000 -9.000000
v 4.997249 -0.300000 0.000000
v 4.997249 0.300000 -9.000000
v 4.997249 -0.300000 9.000000
v 6.000000 0.300000 -7.651232
v -6.000000 0.300000 -7.651232
v -5.064264 0.300000 -7.651232
v 4.997249 0.300000 -7.651232
v 6.000000 0.300000 7.657740
v -6.000000 0.300000 7.657740
v -5.064264 0.300000 7.657740
v 4.997249 0.300000 7.657740
v -5.064264 5.968822 -9.000000
v -6.000000 5.968822 -9.000000
v 4.997249 5.968822 9.000000
v 6.000000 5.968822 9.000000
v 6.000000 5.968822 7.657740
v -6.000000 5.968822 -7.651232
v 4.997249 5.968822 -9.000000
v -6.000000 5.968822 9.000000
v -5.064264 5.968822 9.000000
v -5.064264 5.968822 -7.651232
v 6.000000 5.968822 -9.000000
v 4.997249 5.968822 -7.651232
v 6.000000 5.968822 -7.651232
v -6.000000 5.968822 7.657740
v -5.064264 5.968822 7.657740
v 4.997249 5.968822 7.657740
v -6.000000 0.300000 -6.620664
v -5.064264 0.300000 -6.620664
v 4.997249 0.300000 -6.620664
v 6.000000 0.300000 -6.620664
v -6.000000 5.968822 -6.620664
v -5.064264 5.968822 -6.620664
v 4.997249 5.968822 -6.620664
v 6.000000 5.968822 -6.620664
v 6.000000 0.300000 -4.901041
v 6.000000 5.968822 -4.901041
v -6.000000 0.300000 -4.901041
v -5.064264 0.300000 -4.901041
v 4.997249 0.300000 -4.901041
v -6.000000 5.968822 -4.901041
v -5.064264 5.968822 -4.901041
v 4.997249 5.968822 -4.901041
v 6.000000 0.300000 -4.321643
v 6.000000 5.968822 -4.321643
v -6.000000 0.300000 -4.321643
v -5.064264 0.300000 -4.321643
v 4.997249 0.300000 -4.321643
v -6.000000 5.968822 -4.321643
v -5.064264 5.968822 -4.321643
v 4.997249 5.968822 -4.321643
v 6.000000 0.300000 -1.805288
v 6.000000 5.968822 -1.805288
v -6.000000 0.300000 -1.805288
v -5.064264 0.300000 -1.805288
v 4.997249 0.300000 -1.805288
v -6.000000 5.968822 -1.805288
v -5.064264 5.968822 -1.805288
v 4.997249 5.968822 -1.805288
v 6.000000 0.300000 5.859198
v 6.000000 5.968822 5.859198
v -6.000000 0.300000 5.859198
v -5.064264 0.300000 5.859198
v 4.997249 0.300000 5.859198
v -6.000000 5.968822 5.859198
v -5.064264 5.968822 5.859198
v 4.997249 5.968822 5.859198
v -6.000000 0.300000 2.842917
v -5.064264 0.300000 2.842917
v 4.997249 0.300000 2.842917
v -6.000000 5.968822 2.842917
v -5.064264 5.968822 2.842917
v 4.997249 5.968822 2.842917
v 6.000000 0.300000 2.842917
v 6.000000 5.968822 2.842917
v -6.000000 5.367246 -9.000000
v -5.064264 5.367246 -9.000000
v -5.064264 5.367246 9.000000
v -6.000000 5.367246 9.000000
v 6.000000 5.367246 9.000000
v 4.997249 5.367246 9.000000
v 6.000000 5.367246 7.657740
v 6.000000 5.367246 -7.651232
v 6.000000 5.367246 -9.000000
v 4.997249 5.367246 -9.000000
v -6.000000 5.367246 7.657740
v -6.000000 5.367246 -7.651232
v -6.000000 5.367246 -6.620664
v 6.000000 5.367246 -6.620664
v -6.000000 5.367246 -4.901041
v 6.000000 5.367246 -4.901041
v -6.000000 5.367246 -4.321643
v 6.000000 5.367246 -4.321643
v -6.000000 5.367246 -1.805288
v 6.000000 5.367246 -1.805288
v -6.000000 5.367246 5.859198
v 6.000000 5.367246 5.859198
v 6.000000 5.367246 2.842917
v -6.000000 5.367246 2.842917
v -5.064264 5.315982 7.657740
v 4.997249 5.315982 7.657740
v -5.064264 5.315982 -7.651232
v 4.997249 5.315982 -7.651232
v 4.997249 5.315982 -6.620664
v -5.064264 5.315982 -6.620664
v 4.997249 5.315982 -4.901041
v -5.064264 5.315982 -4.901041
v 4.997249 5.315982 -4.321643
v -5.064264 5.315982 -4.321643
v 4.997249 5.315982 -1.805288
v -5.064264 5.315982 -1.805288
v 4.997249 5.315982 5.859198
v -5.064264 5.315982 5.859198
v -5.064264 5.315982 2.842917
v 4.997249 5.315982 2.842917
v -9.394240 0.300000 0.000000
v -9.394240 0.300000 9.000000
v -9.394240 -0.300000 9.000000
v -9.394240 -0.300000 -9.000000
v -9.394240 0.300000 -9.000000
v -9.394240 -0.300000 0.000000
v -6.000000 -0.300000 -8.287472
v 6.000000 0.300000 -8.287472
v -6.000000 0.300000 -8.287472
v 6.000000 -0.300000 -8.287472
v -5.064264 -0.300000 -8.287472
v 4.997249 -0.300000 -8.287472
v -9.394240 -0.300000 -8.287472
v -9.394240 0.300000 -8.287472
v -8.795257 0.300000 9.000000
v -8.795257 0.300000 0.000000
v -8.795257 -0.300000 -9.000000
v -8.795257 -0.300000 0.000000
v -8.795257 0.300000 -9.000000
v -8.795257 -0.300000 9.000000
v -8.795257 0.300000 -8.287472
v -8.795257 -0.300000 -8.287472
v -6.000000 0.300000 8.352527
v 6.000000 -0.300000 8.352527
v -6.000000 -0.300000 8.352527
v 6.000000 0.300000 8.352527
v -5.064264 -0.300000 8.352527
v 4.997249 -0.300000 8.352527
v 6.000000 0.300000 5.642201
v 6.000000 5.968822 5.642201
v -5.064264 0.300000 5.642201
v 4.997249 0.300000 5.642201
v 4.997249 5.968822 5.642201
v 6.000000 5.367246 5.642201
v 4.997249 5.315982 5.642201
v -9.394240 0.300000 8.352527
v -9.394240 -0.300000 8.352527
v -8.795257 -0.300000 8.352527
v -8.795257 0.300000 8.352527
v -6.000000 2.036115 8.352527
v -6.000000 2.036115 9.000000
v -8.795257 2.036115 9.000000
v -9.394240 2.036115 9.000000
v -9.394240 2.036115 8.352527
v -9.394240 2.036115 -8.287472
v -9.394240 2.036115 0.000000
v -8.795257 2.036115 -9.000000
v -9.394240 2.036115 -9.000000
v -6.000000 2.036115 -9.000000
v -6.000000 2.036115 -8.287472
v -8.795257 2.036115 -8.287472
v -8.795257 2.036115 0.000000
v -8.795257 2.036115 8.352527
v -9.358136 5.367246 9.000000
v -9.358136 5.968822 9.000000
v -9.358136 5.968822 -7.651232
v -9.358136 5.968822 -9.000000
v -9.358136 5.968822 -6.620664
v -9.358136 5.968822 7.657740
v -9.358136 5.367246 7.657740
v -9.358136 5.367246 -7.651232
v -9.358136 5.968822 -4.901041
v -9.358136 5.367246 -6.620664
v -9.358136 5.968822 -4.321643
v -9.358136 5.367246 -4.901041
v -9.358136 5.968822 -1.805288
v -9.358136 5.367246 -4.321643
v -9.358136 5.968822 2.842917
v -9.358136 5.367246 -1.805288
v -9.358136 5.968822 5.859198
v -9.358136 5.367246 5.859198
v -9.358136 5.367246 2.842917
v -9.358136 5.367246 -9.000000
v -6.000000 2.354511 -8.287472
v -6.000000 2.354511 0.000000
v -5.064264 2.354511 -4.321643
v -5.064264 2.354511 -1.805288
v -6.016049 5.074281 -4.321643
v -6.016049 5.074281 -1.805288
v -5.080315 5.023017 -1.805288
v -5.080315 5.023017 -4.321643
vn -0.0000 -1.0000 -0.0000
vn -0.0000 -0.0000 1.0000
vn 1.0000 -0.0000 -0.0000
vn -0.0000 -0.0000 -1.0000
vn -0.0000 1.0000 -0.0000
vn -1.0000 -0.0000 -0.0000
vn -0.0547 -0.9985 -0.0000
vn 0.9733 -0.0000 -0.2296
vn 0.8878 -0.0000 0.4602
vn 0.9985 -0.0547 -0.0000
vn -0.9985 0.0547 -0.0000
vt 0.855505 0.741007
vt 0.875000 0.741007
vt 0.875000 0.750000
vt 0.855505 0.750000
vt 0.375000 0.980506
vt 0.625000 0.980506
vt 0.625000 1.000000
vt 0.375000 1.000000
vt 0.875000 0.509896
vt 0.875000 0.500000
vt 0.375000 0.741007
vt 0.625000 0.741007
vt 0.625000 0.750000
vt 0.375000 0.750000
vt 0.375000 0.479109
vt 0.625000 0.479109
vt 0.625000 0.500000
vt 0.375000 0.500000
vt 0.375000 0.509896
vt 0.625000 0.509896
vt 0.625000 0.625000
vt 0.375000 0.625000
vt 0.375000 0.008993
vt 0.375000 0.000000
vt 0.855505 0.509896
vt 0.875000 0.625000
vt 0.855505 0.625000
vt 0.000000 0.000000
vt 0.645891 0.509896
vt 0.645891 0.625000
vt 0.375000 0.250000
vt 0.625000 0.250000
vt 0.625000 0.269494
vt 0.375000 0.269494
vt 0.375000 0.770891
vt 0.625000 0.770891
vt 0.645891 0.741007
vt 0.645891 0.750000
vt 0.375000 0.500973
vt 0.375000 0.322772
vt 0.375000 0.517679
vt 0.375000 0.363480
vt 0.375000 0.927485
vt 0.375000 0.749133
vt 0.375000 0.306199
vt 0.375000 0.518733
vt 0.375000 0.533046
vt 0.375000 0.349139
vt 0.375000 0.944072
vt 0.375000 0.731357
vt 0.375000 0.856442
vt 0.375000 0.545554
vt 0.375000 0.545554
vt 0.375000 0.431406
vt 0.375000 0.420790
vt 0.375000 0.556930
vt 0.375000 0.431406
vt 0.375000 0.554946
vt 0.375000 0.454292
vt 0.375000 0.564977
vt 0.375000 0.554946
vt 0.375000 0.454292
vt 0.375000 0.444932
vt 0.375000 0.554946
vt 0.375000 0.431406
vt 0.375000 0.595736
vt 0.375000 0.595736
vt 0.375000 0.553690
vt 0.375000 0.549780
vt 0.375000 0.599927
vt 0.375000 0.595736
vt 0.375000 0.553690
vt 0.375000 0.454292
vt 0.375000 0.671084
vt 0.375000 0.737297
vt 0.375000 0.664485
vt 0.375000 0.671084
vt 0.375000 0.737297
vt 0.375000 0.743455
vt 0.375000 0.719978
vt 0.375000 0.719978
vt 0.375000 0.869133
vt 0.375000 0.706378
vt 0.375000 0.856442
vt 0.375000 0.719978
vt 0.375000 0.716460
vt 0.375000 0.716461
vt 0.375000 0.703364
vt 0.375000 0.716460
vt 0.375000 0.847870
vt 0.375000 0.240104
vt 0.625000 0.240104
vt 0.625000 0.008993
vt 0.625000 0.125000
vt 0.375000 0.125000
vt 0.645891 0.500000
vt 0.855505 0.500000
vt 0.625000 0.000000
s 0
usemtl Material
f 161/1/1 14/4/1 4/3/1 159/2/1
f 15/5/2 6/8/2 4/7/2 14/6/2
f 156/9/1 147/9/1 138/10/1 151/10/1
f 160/11/3 8/14/3 2/13/3 158/12/3
f 21/15/4 7/18/4 1/17/4 19/16/4
f 142/19/3 12/22/3 10/21/3 144/20/3
f 157/23/3 174/23/3 175/24/3 6/24/3
f 145/25/1 17/27/1 11/26/1 141/9/1
f 103/28/3 41/28/3 43/28/3 102/28/3
f 116/28/3 80/28/3 35/28/3 101/28/3
f 146/29/1 20/30/1 17/27/1 145/25/1
f 5/31/4 13/34/4 16/33/4 3/32/4
f 18/35/2 15/5/2 14/6/2 22/36/2
f 162/37/1 22/38/1 14/4/1 161/1/1
f 158/12/1 2/13/1 22/38/1 162/37/1
f 8/14/2 18/35/2 22/36/2 2/13/2
f 144/20/1 10/21/1 20/30/1 146/29/1
f 122/39/2 42/39/2 40/40/2 121/40/2
f 13/34/4 21/15/4 19/16/4 16/33/4
f 100/35/2 33/35/2 39/5/2 97/5/2
f 49/41/5 26/39/5 25/40/5 48/42/5
f 119/43/4 45/43/4 46/44/4 120/44/4
f 95/31/4 32/31/4 31/34/4 96/34/4
f 97/5/2 39/5/2 38/8/2 98/8/2
f 99/14/2 34/14/2 33/35/2 100/35/2
f 40/40/5 31/34/5 32/31/5 36/45/5
f 42/39/5 37/15/5 31/34/5 40/40/5
f 43/46/5 41/18/5 37/15/5 42/39/5
f 54/47/5 43/46/5 42/39/5 53/41/5
f 52/42/5 40/40/5 36/45/5 51/48/5
f 39/5/5 45/43/5 44/49/5 38/8/5
f 33/35/5 46/44/5 45/43/5 39/5/5
f 34/14/5 35/50/5 46/44/5 33/35/5
f 101/28/3 35/28/3 34/28/3 99/28/3
f 104/15/4 37/15/4 41/18/4 103/18/4
f 113/28/1 203/28/1 201/28/1 111/28/1
f 107/28/1 197/28/1 195/28/1 106/28/1
f 95/31/4 207/31/4 191/31/4 32/31/4
f 132/51/3 85/51/3 45/43/3 119/43/3
f 96/34/4 31/34/4 37/15/4 104/15/4
f 123/41/6 53/41/6 42/39/6 122/39/6
f 125/52/6 62/53/6 53/41/6 123/41/6
f 121/40/3 40/40/3 52/42/3 124/42/3
f 36/45/5 190/45/5 192/48/5 51/48/5
f 61/54/5 52/42/5 51/48/5 60/55/5
f 56/56/5 54/47/5 53/41/5 62/53/5
f 59/52/5 49/41/5 48/42/5 58/57/5
f 102/28/3 43/28/3 54/28/3 108/28/3
f 67/58/5 59/52/5 58/57/5 66/59/5
f 64/60/5 56/56/5 62/53/5 70/61/5
f 69/62/5 61/54/5 60/55/5 68/63/5
f 106/28/1 195/28/1 207/28/1 95/28/1
f 127/64/6 70/61/6 62/53/6 125/52/6
f 124/42/3 52/42/3 61/54/3 126/65/3
f 108/28/3 54/28/3 56/28/3 110/28/3
f 129/66/6 78/67/6 70/61/6 127/64/6
f 38/8/2 189/8/2 188/8/2 98/8/2
f 77/68/5 69/62/5 68/63/5 76/69/5
f 72/70/5 64/60/5 70/61/5 78/67/5
f 75/71/5 67/58/5 66/59/5 74/72/5
f 126/65/3 61/54/3 69/62/3 128/73/3
f 110/28/3 56/28/3 64/28/3 112/28/3
f 89/74/5 75/71/5 74/72/5 88/75/5
f 94/76/5 72/70/5 78/67/5 92/77/5
f 91/78/5 77/68/5 76/69/5 90/79/5
f 44/49/5 193/49/5 189/8/5 38/8/5
f 134/77/6 92/77/6 78/67/6 129/66/6
f 128/73/3 69/62/3 77/68/3 130/68/3
f 112/28/3 64/28/3 72/28/3 114/28/3
f 120/44/6 46/44/6 86/81/6 131/80/6
f 32/31/5 191/31/5 190/45/5 36/45/5
f 45/43/5 85/51/5 84/82/5 44/49/5
f 35/50/5 80/83/5 86/81/5 46/44/5
f 30/44/5 83/85/5 82/84/5 29/43/5
f 133/78/3 91/78/3 85/51/3 132/51/3
f 168/28/3 164/28/3 80/28/3 116/28/3
f 114/28/3 72/28/3 94/28/3 117/28/3
f 130/68/3 77/68/3 91/78/3 133/78/3
f 169/86/6 167/87/6 92/77/6 134/77/6
f 118/28/1 206/28/1 203/28/1 113/28/1
f 85/51/5 91/78/5 90/79/5 84/82/5
f 164/88/5 94/76/5 92/77/5 167/87/5
f 166/89/5 89/74/5 88/75/5 165/90/5
f 165/90/5 157/23/5 6/24/5 82/84/5
f 71/28/3 114/28/3 117/28/3 93/28/3
f 163/28/3 168/28/3 116/28/3 79/28/3
f 28/28/6 105/28/6 115/28/6 81/28/6
f 63/28/3 112/28/3 114/28/3 71/28/3
f 87/28/6 118/28/6 113/28/6 73/28/6
f 55/28/3 110/28/3 112/28/3 63/28/3
f 128/73/2 111/28/2 65/28/2 66/59/2
f 50/28/3 108/28/3 110/28/3 55/28/3
f 65/28/6 111/28/6 109/28/6 57/28/6
f 23/28/3 102/28/3 108/28/3 50/28/3
f 57/28/6 109/28/6 107/28/6 47/28/6
f 13/34/4 96/34/4 104/15/4 21/15/4
f 24/28/6 106/28/6 95/28/6 5/28/6
f 47/28/6 107/28/6 106/28/6 24/28/6
f 6/28/6 98/28/6 105/28/6 28/28/6
f 21/15/4 104/15/4 103/18/4 7/18/4
f 27/28/3 101/28/3 99/28/3 8/28/3
f 8/14/2 99/14/2 100/35/2 18/35/2
f 15/5/2 97/5/2 98/8/2 6/8/2
f 5/31/4 95/31/4 96/34/4 13/34/4
f 18/35/2 100/35/2 97/5/2 15/5/2
f 79/28/3 116/28/3 101/28/3 27/28/3
f 7/28/3 103/28/3 102/28/3 23/28/3
f 166/89/6 169/86/6 134/77/6 89/74/6
f 74/72/3 130/68/3 133/78/3 88/75/3
f 132/51/7 115/28/7 118/28/7 133/78/7
f 30/44/6 120/44/6 131/80/6 83/85/6
f 143/28/8 208/28/8 210/28/8 66/28/8
f 89/74/6 134/77/6 129/66/6 75/71/6
f 58/57/3 126/65/3 128/73/3 66/59/3
f 75/71/6 129/66/6 127/64/6 67/58/6
f 48/42/3 124/42/3 126/65/3 58/57/3
f 67/58/6 127/64/6 125/52/6 59/52/6
f 25/40/3 121/40/3 124/42/3 48/42/3
f 59/52/6 125/52/6 123/41/6 49/41/6
f 49/41/6 123/41/6 122/39/6 26/39/6
f 82/84/3 132/51/3 119/43/3 29/43/3
f 29/43/4 119/43/4 120/44/4 30/44/4
f 26/39/2 122/39/2 121/40/2 25/40/2
f 82/84/4 81/28/4 115/28/4 132/51/4
f 133/78/2 118/28/2 87/28/2 88/75/2
f 148/91/6 139/31/6 138/32/6 147/92/6
f 170/23/6 135/95/6 140/94/6 171/93/6
f 151/32/4 138/32/4 139/31/4 153/31/4
f 172/2/1 171/2/1 140/26/1 152/26/1
f 149/8/2 136/8/2 137/7/2 154/7/2
f 170/23/6 178/23/6 180/95/6 135/95/6
f 148/91/6 179/91/6 182/31/6 139/31/6
f 135/95/6 148/91/6 147/92/6 140/94/6
f 1/17/1 144/20/1 146/29/1 19/96/1
f 19/96/1 146/29/1 145/25/1 16/97/1
f 16/97/1 145/25/1 141/9/1 3/10/1
f 7/18/3 142/19/3 144/20/3 1/17/3
f 152/26/1 140/26/1 147/9/1 156/9/1
f 11/26/1 152/26/1 156/9/1 141/9/1
f 150/95/3 186/95/3 187/23/3 173/23/3
f 143/28/5 155/28/5 150/28/5 9/28/5
f 6/8/2 149/8/2 154/7/2 4/7/2
f 159/2/1 172/2/1 152/26/1 11/26/1
f 3/32/4 151/32/4 153/31/4 5/31/4
f 135/95/6 180/95/6 179/91/6 148/91/6
f 141/9/1 156/9/1 151/10/1 3/10/1
f 9/95/5 150/95/5 173/23/5 157/23/5
f 4/3/1 154/3/1 172/2/1 159/2/1
f 154/3/1 137/3/1 171/2/1 172/2/1
f 136/24/6 170/23/6 171/93/6 137/98/6
f 83/85/6 131/80/6 169/86/6 166/89/6
f 93/28/3 117/28/3 168/28/3 163/28/3
f 88/75/5 9/95/5 157/23/5 165/90/5
f 83/85/5 166/89/5 165/90/5 82/84/5
f 80/83/5 164/88/5 167/87/5 86/81/5
f 131/80/6 86/81/6 167/87/6 169/86/6
f 117/28/3 94/28/3 164/28/3 168/28/3
f 10/21/1 158/12/1 162/37/1 20/30/1
f 20/30/1 162/37/1 161/1/1 17/27/1
f 143/28/2 184/28/2 185/28/2 155/28/2
f 12/22/3 160/11/3 158/12/3 10/21/3
f 17/27/1 161/1/1 159/2/1 11/26/1
f 187/23/5 178/23/5 177/24/5 176/24/5
f 185/28/5 179/28/5 180/28/5 186/28/5
f 181/28/5 182/28/5 179/28/5 185/28/5
f 183/28/5 181/28/5 185/28/5 184/28/5
f 174/23/5 187/23/5 176/24/5 175/24/5
f 186/95/5 180/95/5 178/23/5 187/23/5
f 6/8/2 175/8/2 176/8/2 149/8/2
f 5/28/3 183/28/3 184/28/3 143/28/3
f 149/8/2 176/8/2 177/8/2 136/8/2
f 136/24/6 177/24/6 178/23/6 170/23/6
f 155/28/3 185/28/3 186/28/3 150/28/3
f 173/23/4 187/23/4 174/23/4 157/23/4
f 153/31/4 181/31/4 183/31/4 5/31/4
f 139/31/4 182/31/4 181/31/4 153/31/4
f 188/28/6 189/28/6 193/28/6 194/28/6
f 197/28/6 192/28/6 190/28/6 195/28/6
f 195/28/6 190/28/6 191/28/6 207/28/6
f 199/28/6 196/28/6 192/28/6 197/28/6
f 201/28/6 198/28/6 196/28/6 199/28/6
f 203/28/6 200/28/6 198/28/6 201/28/6
f 206/28/6 202/28/6 200/28/6 203/28/6
f 194/28/6 193/28/6 204/28/6 205/28/6
f 205/28/6 204/28/6 202/28/6 206/28/6
f 115/28/1 205/28/1 206/28/1 118/28/1
f 98/28/1 188/28/1 194/28/1 105/28/1
f 90/79/5 202/79/5 204/82/5 84/82/5
f 51/48/5 192/48/5 196/55/5 60/55/5
f 111/28/1 201/28/1 199/28/1 109/28/1
f 60/55/5 196/55/5 198/63/5 68/63/5
f 68/63/5 198/63/5 200/69/5 76/69/5
f 76/69/5 200/69/5 202/79/5 90/79/5
f 84/82/5 204/82/5 193/49/5 44/49/5
f 105/28/1 194/28/1 205/28/1 115/28/1
f 109/28/1 199/28/1 197/28/1 107/28/1
f 74/72/4 73/28/4 113/28/4 130/68/4
f 128/73/4 215/73/4 212/28/4 111/28/4
f 210/59/5 208/28/5 209/28/5 211/72/5
f 9/28/6 209/28/6 208/28/6 143/28/6
f 66/59/3 210/59/3 211/72/3 74/72/3
f 74/28/9 211/28/9 209/28/9 9/28/9
f 214/68/7 213/28/7 212/28/7 215/73/7
f 130/68/10 214/68/10 215/73/10 128/73/10
f 113/28/2 213/28/2 214/68/2 130/68/2
f 111/28/11 212/28/11 213/28/11 113/28/11
